<svg width="40" height="40" viewBox="0 0 40 40" fill="none" xmlns="http://www.w3.org/2000/svg">
<path d="M8.1693 26.6664C11.3524 31.6748 18.2973 33.9007 23.8176 31.6971C29.3379 29.4934 32.8104 23.0827 31.6529 17.2508C30.7848 12.8434 27.4459 9.01481 23.2166 7.47891C18.6534 5.80946 12.2205 6.58854 9.41582 10.8623C6.255 15.6258 4.91944 21.5691 8.1693 26.6664Z" fill="#0BBF28"/>
<path d="M31.653 17.2734C31.0297 14.1348 29.16 11.2856 26.6001 9.34904C27.0898 10.3507 27.4682 11.4192 27.6908 12.5099C28.8483 18.3418 25.3759 24.7525 19.8556 26.9562C15.7821 28.5811 10.9518 27.802 7.4126 25.2645C7.63519 25.7542 7.9023 26.2216 8.19167 26.689C11.3748 31.6974 18.3197 33.9233 23.84 31.7197C29.3158 29.4937 32.7882 23.1053 31.653 17.2734Z" fill="#0E9122"/>
<path d="M23.6841 9.83843C25.6874 11.3521 29.4938 4.11778 29.4938 4.11778L30.8516 5.14171C30.8516 5.14171 24.9751 10.8178 27.0007 12.3315" fill="#0BBF28"/>
<path d="M31.6529 5.52036C32.0758 3.67284 28.8705 1.89209 28.4476 3.91769C28.0469 5.87651 31.1632 7.65726 31.6529 5.52036Z" fill="#0BBF28"/>
<path d="M30.1171 3.60571C29.7609 3.09375 28.6034 3.47216 29.0041 4.02864C29.4048 4.56286 30.5177 4.18446 30.1171 3.60571Z" fill="#0E9122"/>
<path d="M31.5193 4.42946C31.5193 4.54075 31.4971 4.65205 31.4748 4.76335C31.0741 6.45506 29.0486 5.67598 28.4253 4.31816C28.4698 6.09891 31.2077 7.5235 31.6529 5.52016C31.7419 5.14176 31.6752 4.76335 31.5193 4.42946Z" fill="#0E9122"/>
<path d="M30.1616 18.8535C29.939 21.3688 38.0859 20.7678 38.0859 20.7678L37.9301 22.4595C37.9301 22.4595 30.0058 20.4784 29.7832 22.9937" fill="#0E9122"/>
<path d="M38.0412 23.3497C39.8219 22.7487 39.6661 19.0759 37.7073 19.7882C35.8375 20.4783 35.9711 24.062 38.0412 23.3497Z" fill="#0E9122"/>
<path d="M38.8426 21.0127C39.0874 20.434 38.1525 19.6772 37.8854 20.3004C37.6628 20.9237 38.5532 21.6805 38.8426 21.0127Z" fill="#0BBF28"/>
<path d="M38.8872 22.6598C38.7982 22.7266 38.6869 22.7711 38.5756 22.7933C36.9284 23.3498 36.5055 21.2129 37.3513 19.9664C35.8599 20.9458 36.1048 24.0176 38.0414 23.3498C38.3975 23.2163 38.6869 22.9714 38.8872 22.6598Z" fill="#0BBF28"/>
<path d="M26.511 27.4902C24.7302 28.3361 28.403 33.5893 28.403 33.5893L27.201 34.168C27.201 34.168 25.3535 28.0467 23.5728 28.9148" fill="#0E9122"/>
<path d="M26.6668 34.5909C27.8021 35.548 30.1838 33.9676 28.9373 32.9437C27.713 31.942 25.3535 33.4779 26.6668 34.5909Z" fill="#0E9122"/>
<path d="M28.5587 34.1903C29.0484 34.1235 29.182 33.1886 28.6477 33.2777C28.1358 33.3444 28.0022 34.2571 28.5587 34.1903Z" fill="#0BBF28"/>
<path d="M27.468 34.8801C27.4013 34.8356 27.3122 34.791 27.2454 34.7243C26.1992 33.8562 27.468 32.6987 28.6478 32.7655C27.379 32.1422 25.4202 33.5445 26.6444 34.5907C26.8893 34.7688 27.1787 34.8578 27.468 34.8801Z" fill="#0BBF28"/>
<path d="M21.7919 30.6286C19.2766 30.6953 20.7902 38.7309 20.7902 38.7309L19.0985 38.7755C19.0985 38.7755 20.1447 30.6731 17.6294 30.7621" fill="#0E9122"/>
<path d="M18.2306 38.9761C19.0542 40.6901 22.6824 40.0891 21.7253 38.2415C20.8349 36.4608 17.2957 36.995 18.2306 38.9761Z" fill="#0E9122"/>
<path d="M19.0317 39.7551C18.9649 39.6661 18.8982 39.5771 18.8536 39.4658C18.0968 37.9076 20.1892 37.2176 21.5248 37.9076C20.3673 36.5275 17.3623 37.1285 18.2304 38.9761C18.4085 39.3322 18.6978 39.5771 19.0317 39.7551Z" fill="#0BBF28"/>
<path d="M13.7117 9.50458C16.049 8.54743 11.7529 1.58026 11.7529 1.58026L13.3111 0.934738C13.3111 0.934738 15.2254 8.88132 17.5403 7.90191" fill="#0BBF28"/>
<path d="M14.0679 0.445105C12.6878 -0.868195 9.52701 0.979328 11.0406 2.38167C12.532 3.73948 15.6483 1.95874 14.0679 0.445105Z" fill="#0BBF28"/>
<path d="M11.6196 0.801346C10.9964 0.845865 10.7515 2.02561 11.4193 1.95883C12.0871 1.91431 12.3319 0.756828 11.6196 0.801346Z" fill="#0E9122"/>
<path d="M13.044 -0.000190735C13.133 0.0665872 13.222 0.133365 13.3111 0.222402C14.5799 1.42441 12.8659 2.78222 11.3745 2.62641C12.9327 3.49452 15.537 1.86959 14.0679 0.444996C13.7785 0.177884 13.4224 0.0443279 13.044 -0.000190735Z" fill="#0E9122"/>
<path d="M8.32501 18.0078C9.17087 15.626 1.13525 14.2014 1.13525 14.2014L1.69174 12.5988C1.69174 12.5988 8.90376 16.4719 9.70509 14.0679" fill="#0BBF28"/>
<path d="M1.80313 11.7083C-0.0889124 11.8641 -0.82347 15.4701 1.24665 15.2475C3.22773 15.0472 3.98454 11.5302 1.80313 11.7083Z" fill="#0BBF28"/>
<path d="M0.445273 13.7784C0.0668641 14.2681 0.779162 15.2475 1.17983 14.691C1.5805 14.1568 0.890459 13.1997 0.445273 13.7784Z" fill="#0E9122"/>
<path d="M0.801514 12.1758C0.91281 12.1536 1.02411 12.1313 1.1354 12.1091C2.87163 11.9755 2.76033 14.1347 1.64737 15.1586C3.33908 14.5798 3.85104 11.5526 1.82544 11.7084C1.40252 11.7529 1.06863 11.931 0.801514 12.1758Z" fill="#0E9122"/>
<path d="M12.265 28.1355C10.7959 26.0877 5.03072 31.8751 5.03072 31.8751L4.02905 30.495C4.02905 30.495 11.3079 26.7777 9.81648 24.7521" fill="#0E9122"/>
<path d="M3.38357 29.9166C2.42642 31.5638 4.96398 34.2127 5.96565 32.3874C6.9228 30.6289 4.47427 28.0246 3.38357 29.9166Z" fill="#0E9122"/>
<path d="M4.29613 32.209C4.49646 32.81 5.69846 32.7655 5.47587 32.12C5.25328 31.4967 4.07353 31.519 4.29613 32.209Z" fill="#0BBF28"/>
<path d="M3.18329 31.0072C3.20555 30.8959 3.25007 30.8068 3.31685 30.6955C4.18496 29.1819 5.92119 30.5175 6.09926 32.0311C6.58897 30.3171 4.3853 28.158 3.36137 29.9165C3.18329 30.2503 3.13877 30.6288 3.18329 31.0072Z" fill="#0BBF28"/>
<path d="M19.5662 8.10222C21.4359 8.52515 21.7921 2.29254 21.7921 2.29254L23.0609 2.55965C23.0609 2.55965 20.7904 8.36934 22.6602 8.77" fill="#0BBF28"/>
<path d="M23.7508 2.58229C23.4614 1.15769 20.679 0.935101 21.0129 2.47099C21.369 3.98463 24.0847 4.22948 23.7508 2.58229Z" fill="#0BBF28"/>
<path d="M22.0591 1.73618C21.6585 1.49132 20.9684 2.13684 21.4359 2.3817C21.8811 2.62655 22.5488 2.02555 22.0591 1.73618Z" fill="#0E9122"/>
<path d="M23.3057 1.8698C23.3502 1.93657 23.3725 2.02561 23.3947 2.11465C23.6618 3.40569 21.9924 3.51699 21.1243 2.76017C21.7253 3.98443 24.0625 4.09573 23.7509 2.5821C23.7063 2.29272 23.5283 2.04787 23.3057 1.8698Z" fill="#0E9122"/>
<path d="M28.3362 13.8451C29.3824 15.4478 33.99 11.2408 33.99 11.2408L34.7023 12.3315C34.7023 12.3315 29.0262 14.9136 30.0947 16.5163" fill="#0E9122"/>
<path d="M35.1922 12.7991C35.9712 11.5749 34.1237 9.46022 33.3001 10.818C32.4988 12.1313 34.2795 14.2015 35.1922 12.7991Z" fill="#0E9122"/>
<path d="M34.569 11.0182C34.4354 10.5507 33.5228 10.5507 33.6564 11.0404C33.8122 11.5301 34.7248 11.5524 34.569 11.0182Z" fill="#0BBF28"/>
<path d="M35.3701 11.9755C35.3479 12.0646 35.3034 12.1314 35.2588 12.1981C34.5465 13.3111 33.2778 12.2427 33.1887 11.0852C32.7658 12.3762 34.3685 14.0902 35.1921 12.7769C35.3479 12.5543 35.3924 12.2649 35.3701 11.9755Z" fill="#0BBF28"/>
<path d="M16.5834 30.7622C15.003 29.6715 12.3541 35.3254 12.3541 35.3254L11.2856 34.5908C11.2856 34.5908 15.5594 30.0499 13.9568 28.9815" fill="#0E9122"/>
<path d="M10.6624 34.3236C10.3953 35.7482 12.9106 36.9947 13.1555 35.4366C13.4003 33.923 10.9518 32.6764 10.6624 34.3236Z" fill="#0E9122"/>
<path d="M11.909 35.726C12.1983 36.1044 13.0664 35.7705 12.7326 35.3699C12.4209 34.9692 11.5751 35.3031 11.909 35.726Z" fill="#0BBF28"/>
<path d="M10.796 35.1475C10.796 35.0584 10.796 34.9694 10.8183 34.9026C11.0631 33.5893 12.6435 34.1013 13.1555 35.1252C13.0665 33.7674 10.9296 32.788 10.6402 34.3239C10.5957 34.6132 10.6625 34.9026 10.796 35.1475Z" fill="#0BBF28"/>
<path d="M29.2043 25.0419C28.3807 26.7781 34.3684 28.5143 34.3684 28.5143L33.8119 29.6941C33.8119 29.6941 28.67 26.1771 27.8464 27.9133" fill="#0E9122"/>
<path d="M33.6561 30.3616C35.1029 30.4061 35.9488 27.735 34.3684 27.7127C32.8325 27.7127 31.9866 30.317 33.6561 30.3616Z" fill="#0E9122"/>
<path d="M34.8582 28.8926C35.192 28.5364 34.7246 27.7574 34.3684 28.1358C34.0123 28.5142 34.4575 29.2932 34.8582 28.8926Z" fill="#0BBF28"/>
<path d="M34.4576 30.0722C34.3686 30.0944 34.2796 30.0944 34.2128 30.0944C32.8772 30.0499 33.1443 28.425 34.0792 27.7349C32.7437 28.0466 32.1204 30.2947 33.6786 30.3393C33.9457 30.3615 34.2128 30.2502 34.4576 30.0722Z" fill="#0BBF28"/>
<path d="M9.57168 12.799C10.9072 11.4189 5.7876 7.85742 5.7876 7.85742L6.67797 6.92253C6.67797 6.92253 10.4398 11.9086 11.7754 10.5063" fill="#0BBF28"/>
<path d="M7.05626 6.34381C5.69845 5.85411 4.029 8.1023 5.54263 8.61426C6.98949 9.10397 8.61442 6.92255 7.05626 6.34381Z" fill="#0BBF28"/>
<path d="M5.45368 7.34554C5.03075 7.56813 5.20882 8.48077 5.67627 8.21365C6.0992 7.9688 5.94338 7.07843 5.45368 7.34554Z" fill="#0E9122"/>
<path d="M6.21044 6.34373C6.29948 6.34373 6.36625 6.36599 6.45529 6.4105C7.70181 6.85569 6.92274 8.34707 5.83203 8.68095C7.18985 8.81451 8.52541 6.87795 7.05629 6.34373C6.76692 6.23243 6.47755 6.25469 6.21044 6.34373Z" fill="#0E9122"/>
<path d="M8.6145 23.7281C8.36965 21.8138 2.38189 23.5723 2.38189 23.5723L2.22607 22.2813C2.22607 22.2813 8.45868 22.4816 8.21383 20.5673" fill="#0BBF28"/>
<path d="M2.02564 21.658C0.779121 22.4148 1.51368 25.1082 2.84924 24.2624C4.14028 23.4388 3.45024 20.7899 2.02564 21.658Z" fill="#0BBF28"/>
<path d="M1.78089 23.528C1.69185 23.9955 2.51545 24.4184 2.60448 23.9064C2.69352 23.3945 1.89219 22.9938 1.78089 23.528Z" fill="#0E9122"/>
<path d="M1.49146 22.3036C1.55823 22.2368 1.62501 22.1923 1.69179 22.1477C2.82701 21.4577 3.49479 22.9936 3.07187 24.062C4.02902 23.0826 3.33898 20.8344 2.00342 21.6358C1.75857 21.8139 1.60275 22.0364 1.49146 22.3036Z" fill="#0E9122"/>
<path d="M11.3525 14.2458C11.1076 14.2013 10.8628 14.1568 10.6179 14.2458C10.3731 14.3348 10.2173 14.5574 10.1282 14.8245C10.0615 15.0694 10.0615 15.3365 10.106 15.5813C10.2841 16.5385 10.9964 17.4066 11.909 17.7182C12.8661 18.0744 14.313 17.4511 13.9346 16.2269C13.6452 15.2475 12.3097 14.4684 11.3525 14.2458Z" fill="#0E9122"/>
<path d="M25.4647 19.6106C25.6206 19.3213 25.7319 18.9874 25.7096 18.6758C25.6651 18.3419 25.4425 18.0302 25.1531 17.8522C24.8637 17.6741 24.5076 17.585 24.1737 17.5628C22.8604 17.4515 21.5248 18.0747 20.7903 19.1655C20.0112 20.3007 20.3228 22.3708 22.0146 22.2818C23.4169 22.215 24.8637 20.7681 25.4647 19.6106Z" fill="#0E9122"/>
<path d="M12.1981 20.9682C11.8197 20.8792 11.4413 20.8124 11.0852 20.946C10.7068 21.0795 10.4396 21.4134 10.3061 21.7918C10.1725 22.1702 10.1725 22.5709 10.2171 22.9716C10.4174 24.4852 11.4858 25.843 12.8882 26.4218C14.3573 27.0228 16.6277 26.1546 16.1158 24.2403C15.6706 22.6377 13.6672 21.3689 12.1981 20.9682Z" fill="#0E9122"/>
<path d="M15.1809 18.8757C15.0251 19.0093 14.8693 19.1651 14.8025 19.3432C14.7357 19.5435 14.8025 19.7884 14.9138 19.9665C15.0251 20.1445 15.2032 20.2781 15.4035 20.3894C16.1158 20.79 17.0507 20.7678 17.7408 20.3449C18.4753 19.8997 18.8315 18.6309 17.8298 18.2525C17.0062 17.9186 15.8042 18.3638 15.1809 18.8757Z" fill="#0E9122"/>
<path d="M17.7852 25.3757C17.8075 25.5537 17.8743 25.7541 17.9856 25.8876C18.1191 26.0212 18.3194 26.0879 18.5198 26.0657C18.7201 26.0434 18.8982 25.9767 19.0763 25.8654C19.7218 25.4647 20.1225 24.7301 20.1002 23.9733C20.0779 23.1942 19.2321 22.3484 18.4753 22.9494C17.852 23.4836 17.6739 24.6411 17.7852 25.3757Z" fill="#0E9122"/>
<path d="M16.3383 9.88291C15.8486 9.97195 15.3589 10.1278 15.025 10.5284C14.6689 10.9291 14.5576 11.5524 14.6466 12.1311C14.7357 12.7098 14.9805 13.2663 15.2922 13.756C16.4719 15.6481 18.542 16.8278 20.5231 16.7388C22.5932 16.6497 24.6633 14.1122 22.8826 11.864C21.3912 10.0387 18.2972 9.52676 16.3383 9.88291Z" fill="#0E9122"/>
<path d="M9.54932 26.5107C10.2171 26.8223 10.9294 27.0894 11.6417 27.2898L9.81643 24.7745C10.1948 25.2864 10.0168 25.8874 9.54932 26.5107Z" fill="#0BBF28"/>
<path d="M27.112 9.77173C26.9562 10.2169 26.7558 10.6398 26.6891 11.085C26.6445 11.3076 26.6445 11.5302 26.6668 11.7528C26.6891 11.8641 26.7336 11.9754 26.7781 12.0644C26.8226 12.1535 26.9117 12.2425 27.0007 12.3316C26.8894 12.2648 26.8004 12.198 26.7336 12.109C26.6668 12.0199 26.6 11.9086 26.5555 11.7751C26.511 11.6638 26.511 11.5302 26.511 11.4189C26.511 11.3076 26.511 11.1741 26.5332 11.0628C26.5778 10.8179 26.6445 10.5953 26.7558 10.395C26.8671 10.1724 26.9784 9.97206 27.112 9.77173Z" fill="#0E9122"/>
<path d="M23.6841 9.83842C23.8844 9.94972 24.107 10.0165 24.3296 9.99423C24.5522 9.97197 24.7748 9.9052 24.9751 9.7939C25.1755 9.6826 25.3758 9.57131 25.5539 9.43775C25.7319 9.28194 25.91 9.14838 26.1103 9.01482C25.9545 9.1929 25.7987 9.37097 25.6206 9.52679C25.4426 9.6826 25.2422 9.81616 25.0419 9.92746C24.8193 10.0388 24.5967 10.1055 24.3519 10.1055C24.2183 10.1055 24.107 10.0833 23.9957 10.0388C23.8622 9.99423 23.7731 9.92746 23.6841 9.83842Z" fill="#0E9122"/>
<path d="M31.6528 21.7694C31.4525 21.8139 31.2521 21.8807 31.0741 21.9252C30.8737 21.992 30.6957 22.0365 30.5176 22.1256C30.3395 22.2146 30.1837 22.3259 30.0501 22.4595C29.9166 22.593 29.8275 22.7711 29.783 22.9714C29.7608 22.7711 29.8275 22.5485 29.9611 22.3704C30.0947 22.1924 30.2727 22.0588 30.4508 21.9698C30.8292 21.8362 31.2521 21.7694 31.6528 21.7694Z" fill="#0E9122"/>
<path d="M30.1617 18.8536C30.1617 19.0762 30.2284 19.2543 30.3397 19.4324C30.451 19.5882 30.6068 19.744 30.7627 19.8553C30.9185 19.9666 31.1188 20.0779 31.2969 20.1669C31.475 20.256 31.6753 20.345 31.8756 20.434C31.6753 20.4118 31.4527 20.3673 31.2524 20.2782C31.052 20.2114 30.8517 20.1224 30.6736 19.9889C30.4956 19.8553 30.3397 19.6995 30.2284 19.4992C30.1394 19.2988 30.1171 19.054 30.1617 18.8536Z" fill="#0E9122"/>
<path d="M15.6931 6.96714C15.9602 7.23425 16.2051 7.52362 16.5167 7.72396C16.6725 7.83525 16.8283 7.90203 17.0064 7.94655C17.1845 7.99107 17.3626 7.99107 17.5406 7.92429C17.3848 8.03559 17.1845 8.08011 16.9842 8.05785C16.7838 8.03559 16.6057 7.94655 16.4277 7.85751C16.116 7.61266 15.8712 7.30103 15.6931 6.96714Z" fill="#0E9122"/>
<path d="M13.7119 9.50468C13.89 9.39338 14.0458 9.25982 14.1348 9.08175C14.2239 8.90367 14.2907 8.7256 14.3129 8.52527C14.3352 8.32493 14.3352 8.1246 14.3352 7.92426C14.3352 7.72393 14.3129 7.5236 14.3129 7.301C14.4465 7.70167 14.5133 8.10234 14.4687 8.54753C14.4465 8.74786 14.3797 8.97045 14.2461 9.14853C14.1126 9.3266 13.9122 9.46016 13.7119 9.50468Z" fill="#0E9122"/>
<path d="M7.36816 14.7802C7.59076 14.7802 7.81335 14.8025 8.03594 14.8025C8.25854 14.8025 8.48113 14.8025 8.68146 14.7579C8.8818 14.7357 9.10439 14.6689 9.28247 14.5576C9.46054 14.4463 9.61636 14.2905 9.70539 14.0902C9.66087 14.3128 9.52732 14.5131 9.34924 14.6466C9.17117 14.7802 8.92632 14.8692 8.70372 14.8915C8.48113 14.936 8.25854 14.936 8.03594 14.9138C7.81335 14.8915 7.59076 14.847 7.36816 14.7802Z" fill="#0E9122"/>
<path d="M8.32519 18.0079C8.36971 17.7853 8.34745 17.5627 8.28067 17.3846C8.21389 17.1843 8.08034 17.0062 7.94678 16.8504C7.81322 16.6946 7.63515 16.561 7.45708 16.4275C7.279 16.2939 7.10093 16.1604 6.92285 16.0268C7.12319 16.1158 7.32352 16.2049 7.52385 16.3384C7.72419 16.4497 7.88 16.6055 8.03582 16.7614C8.19163 16.9394 8.32519 17.1175 8.36971 17.3624C8.45874 17.5627 8.43649 17.8075 8.32519 18.0079Z" fill="#0E9122"/>
<path d="M12.2651 28.1356C12.087 27.9353 11.8645 27.824 11.6196 27.7795C11.3748 27.735 11.1299 27.7795 10.885 27.824C10.3953 27.9353 9.9279 28.1356 9.46045 28.336C9.88338 28.0466 10.3508 27.8017 10.8628 27.6682C11.1076 27.6237 11.397 27.5792 11.6641 27.6459C11.909 27.735 12.1538 27.913 12.2651 28.1356Z" fill="#0E9122"/>
<path d="M21.9479 7.12277C21.9924 7.45666 22.0147 7.79055 22.1037 8.07992C22.1482 8.23574 22.215 8.36929 22.304 8.50285C22.3931 8.63641 22.5266 8.72544 22.6824 8.79222C22.5044 8.79222 22.3486 8.70318 22.215 8.59189C22.0814 8.45833 22.0147 8.30252 21.9479 8.1467C21.9034 7.96863 21.8811 7.81281 21.8811 7.63474C21.8811 7.4344 21.9034 7.27859 21.9479 7.12277Z" fill="#0E9122"/>
<path d="M19.5662 8.10239C19.722 8.10239 19.8778 8.08013 20.0113 8.01336C20.1449 7.94658 20.2562 7.83528 20.3675 7.72398C20.5678 7.50139 20.7236 7.21202 20.924 6.94491C20.8795 7.10072 20.8349 7.25654 20.7682 7.41235C20.7014 7.56817 20.6123 7.70172 20.5011 7.83528C20.3898 7.96884 20.2562 8.08013 20.0781 8.12465C19.9001 8.16917 19.722 8.16917 19.5662 8.10239Z" fill="#0E9122"/>
<path d="M30.8295 14.6914C30.6069 14.9807 30.3843 15.2256 30.2062 15.5372C30.1172 15.693 30.0504 15.8488 30.0281 16.0047C30.0059 16.1605 30.0281 16.3386 30.0949 16.4944C29.9613 16.3608 29.8946 16.1827 29.9168 15.9824C29.9168 15.7821 29.9836 15.604 30.0726 15.4482C30.1617 15.2924 30.273 15.1365 30.4065 15.0253C30.5401 14.8917 30.6736 14.7804 30.8295 14.6914Z" fill="#0E9122"/>
<path d="M28.3362 13.8455C28.4697 13.9791 28.6256 14.0681 28.8036 14.1126C28.9817 14.1571 29.1598 14.1349 29.3379 14.1126C29.694 14.0681 30.0502 13.9345 30.4063 13.8232C30.0947 14.0458 29.7385 14.2017 29.3601 14.2684C29.1598 14.2907 28.9594 14.2907 28.7814 14.2239C28.581 14.1571 28.4252 14.0236 28.3362 13.8455Z" fill="#0E9122"/>
<path d="M13.7341 31.3634C13.8899 30.9405 14.0903 30.5621 14.1793 30.1391C14.2238 29.9388 14.2684 29.7162 14.2461 29.5159C14.2238 29.3155 14.1348 29.1152 13.9567 28.9594C14.1571 29.0484 14.3129 29.271 14.3574 29.4936C14.4019 29.7162 14.3797 29.9611 14.3129 30.1837C14.2016 30.6289 14.0012 31.0073 13.7341 31.3634Z" fill="#0E9122"/>
<path d="M16.5835 30.7622C16.4054 30.6732 16.2051 30.651 16.0048 30.6955C15.8267 30.74 15.6486 30.829 15.4705 30.9403C15.1366 31.1629 14.8473 31.4523 14.5356 31.7194C14.7582 31.3633 15.0253 31.0516 15.3815 30.8068C15.5596 30.6955 15.7599 30.5842 15.9825 30.5619C16.2051 30.5397 16.4277 30.6064 16.5835 30.7622Z" fill="#0E9122"/>
<path d="M25.7986 30.6736C25.5093 30.2506 25.2199 29.8277 24.886 29.4493C24.7079 29.2712 24.5299 29.0931 24.3073 28.9818C24.0847 28.8705 23.8398 28.826 23.595 28.9151C23.7063 28.8483 23.8398 28.8038 23.9734 28.8038C24.0402 28.8038 24.1069 28.8038 24.1737 28.826C24.2405 28.8483 24.3073 28.8705 24.374 28.8928C24.6189 29.0041 24.8192 29.1822 24.9973 29.3825C25.3535 29.7387 25.5983 30.2061 25.7986 30.6736Z" fill="#0E9122"/>
<path d="M26.5111 27.4903C26.3107 27.6238 26.1772 27.8464 26.1326 28.069C26.0881 28.2916 26.1104 28.5364 26.1326 28.7813C26.1994 29.2487 26.3552 29.7162 26.4888 30.2059C26.2439 29.783 26.0659 29.3155 25.9768 28.8036C25.9323 28.5587 25.9323 28.2916 25.9991 28.0467C26.0881 27.7796 26.2885 27.557 26.5111 27.4903Z" fill="#0E9122"/>
<path d="M19.0988 32.5875C19.032 32.3872 18.9429 32.1869 18.8762 31.9865C18.7871 31.7862 18.7203 31.6081 18.609 31.4301C18.4978 31.252 18.3642 31.0962 18.2084 30.9849C18.0526 30.8736 17.8522 30.7845 17.6296 30.7623C17.83 30.7178 18.0748 30.7623 18.2529 30.8736C18.4532 30.9849 18.5868 31.163 18.7203 31.341C18.9429 31.7194 19.0542 32.1646 19.0988 32.5875Z" fill="#0E9122"/>
<path d="M21.7921 30.6287C21.5918 30.6732 21.3915 30.74 21.2357 30.8735C21.0798 31.0071 20.9685 31.1629 20.8795 31.341C20.7905 31.519 20.7014 31.7194 20.6347 31.8974C20.5679 32.0978 20.5011 32.2981 20.4343 32.4984C20.4343 32.2981 20.4566 32.0755 20.5011 31.8752C20.5456 31.6749 20.6124 31.4745 20.7237 31.2742C20.835 31.0739 20.9685 30.8958 21.1466 30.7845C21.347 30.6509 21.5918 30.6064 21.7921 30.6287Z" fill="#0E9122"/>
<path d="M29.1822 27.4682C28.9151 27.4904 28.6703 27.4904 28.4477 27.535C28.3364 27.5572 28.2251 27.6017 28.1138 27.6685C28.0025 27.7353 27.9135 27.8243 27.8467 27.9134C27.8689 27.7798 27.9357 27.6685 28.047 27.5795C28.1583 27.4904 28.2696 27.4237 28.4032 27.4014C28.5367 27.3791 28.6703 27.3569 28.8038 27.3791C28.9374 27.3791 29.0709 27.4237 29.1822 27.4682Z" fill="#0E9122"/>
<path d="M29.2044 25.0415C29.1598 25.1751 29.1598 25.3309 29.1821 25.4422C29.2044 25.5757 29.2489 25.687 29.3379 25.8206C29.4715 26.0654 29.6718 26.2658 29.8499 26.4884C29.7163 26.4216 29.605 26.3326 29.4937 26.2435C29.3824 26.1545 29.2934 26.0432 29.2044 25.9096C29.1376 25.7761 29.0708 25.6203 29.0708 25.4867C29.0708 25.3086 29.1153 25.1528 29.2044 25.0415Z" fill="#0E9122"/>
<path d="M9.8833 10.217C10.1949 10.3506 10.5066 10.5286 10.8182 10.6177C10.974 10.6622 11.1298 10.6844 11.3079 10.6844C11.4637 10.6622 11.6195 10.6177 11.7753 10.5064C11.6863 10.6622 11.5082 10.7512 11.3302 10.7957C11.1521 10.8403 10.9517 10.818 10.7959 10.7512C10.6179 10.7067 10.462 10.6177 10.3062 10.5286C10.1504 10.4396 10.0169 10.3283 9.8833 10.217Z" fill="#0E9122"/>
<path d="M9.5718 12.7991C9.66084 12.6656 9.70536 12.5097 9.72761 12.3762C9.74987 12.2204 9.72761 12.0868 9.6831 11.931C9.59406 11.6416 9.43824 11.3523 9.30469 11.0629C9.41598 11.1742 9.52728 11.3077 9.61632 11.4413C9.70536 11.5748 9.77213 11.7307 9.81665 11.8865C9.86117 12.0423 9.88343 12.2204 9.83891 12.3984C9.79439 12.5543 9.70536 12.6878 9.5718 12.7991Z" fill="#0E9122"/>
<path d="M6.41089 21.9698C6.7893 21.8139 7.18997 21.6804 7.54611 21.5023C7.72419 21.4133 7.88 21.302 8.01356 21.1462C8.14712 20.9904 8.21389 20.8123 8.21389 20.5897C8.28067 20.79 8.23615 21.0349 8.1026 21.2129C7.96904 21.391 7.79097 21.5246 7.61289 21.6359C7.25674 21.8362 6.83382 21.9252 6.41089 21.9698Z" fill="#0E9122"/>
<path d="M8.61455 23.7284C8.57003 23.5281 8.43648 23.3723 8.28066 23.261C8.12485 23.1497 7.94677 23.0829 7.74644 23.0384C7.36803 22.9271 6.96736 22.9048 6.54443 22.8603C6.9451 22.7935 7.36803 22.7935 7.7687 22.9048C7.96903 22.9716 8.16937 23.0384 8.32518 23.1942C8.52551 23.3055 8.63681 23.5281 8.61455 23.7284Z" fill="#0E9122"/>
<path d="M8.63672 27.4901C8.99287 27.0894 9.37128 26.6888 9.63839 26.2436C9.77194 26.021 9.88324 25.7761 9.95002 25.5313C9.99454 25.2864 9.95002 25.0193 9.81646 24.7745C9.99454 24.9748 10.1058 25.2642 10.0613 25.5536C10.0391 25.8429 9.9055 26.0878 9.77194 26.3326C9.48257 26.7778 9.08191 27.1562 8.63672 27.4901Z" fill="#0E9122"/>
<path d="M20.6567 39.5101C21.2577 39.6882 21.9032 38.6642 21.2577 38.4862C20.6121 38.3081 19.9666 39.3098 20.6567 39.5101Z" fill="#0BBF28"/>
</svg>
